<svg viewBox="0 0 27 54" xmlns="http://www.w3.org/2000/svg"><path d="m0 0h27v54h-27z" fill="none"/><path d="m5.871 22.49c-2.38.09-3.89 1.59-5.29 3.06-.6.66-.48 1.14-.48 2.51 0 1.85 0 2.07.5 2.87a6.359 6.359 0 0 0 5.27 3.07c3.62.27 6.74-2.57 6.74-5.75s-3.12-5.89-6.74-5.76zm-3.09 7.51a.6.6 0 0 1 -1.19 0v-3.42a.6.6 0 0 1 1.19 0zm6.71-1.72a.889.889 0 0 1 -.9.88h-1.94a.89.89 0 0 1 -.9-.88v-.11a.89.89 0 0 1 .9-.88h1.949a.889.889 0 0 1 .9.88zm-3 6.92v13.47a1.53 1.53 0 0 0 1.37 1.33h1.61a1.581 1.581 0 0 0 1.45-1.51v-.2-14.29a6.941 6.941 0 0 1 -4.45 1.22zm20-9.72c-1.4-1.47-3-2.92-5.35-3-3.62-.13-6.72 2.59-6.72 5.78a6.19 6.19 0 0 0 6.529 5.832h.031a6.688 6.688 0 0 0 5.38-3.2c.54-.8.5-1 .5-2.87.04-1.38.2-1.86-.43-2.52zm-5.23 2.8a.889.889 0 0 1 -.9.88h-2a.89.89 0 0 1 -.9-.88v-.11a.89.89 0 0 1 .9-.88h1.939a.889.889 0 0 1 .9.88zm4.08 1.72a.6.6 0 0 1 -1.19 0v-3.41a.595.595 0 1 1 1.19 0zm-9.36 4v14.26.2a1.57 1.57 0 0 0 1.51 1.54h1.6a1.52 1.52 0 0 0 1.39-1.31v-13.48a6.9 6.9 0 0 1 -4.5-1.21z" fill="#f5f5f7"/></svg>