<svg viewBox="0 0 31 54" xmlns="http://www.w3.org/2000/svg"><path d="m15.5 0h-15.5v27 27h15.5 15.5v-27-27z" fill="none"/><g fill="#f5f5f7"><path d="m15.52861 18.47015-.02856-.00092-.02856.00092a12.11917 12.11917 0 0 0 -9.75538 4.99218 14.74873 14.74873 0 0 1 9.75589-3.38305 14.57547 14.57547 0 0 1 9.85166 3.41072 12.41617 12.41617 0 0 0 -9.79505-5.01985z"/><path d="m30.53362 31.84911c-.00208-.10772-.00574-.21338-.00952-.3189l-1.87854.09863c.00268.24371.001.42785.0105.54321.0133.1637.04919.20258.18334.19434s.25171-.011.25171-.011.00269.594.00269 1.27826a.812.812 0 0 0 .17517.56958c-.02234-.01227-.04065-.023-.06457-.03595a1.55561 1.55561 0 0 0 -.98487-.0741 3.75912 3.75912 0 0 0 -.72.30518 2.85929 2.85929 0 0 1 -.39624 1.91974c-.658 1.33777-3.95679 8.419-5.59228 10.68713a5.01773 5.01773 0 0 1 -1.37513 1.439 4.47346 4.47346 0 0 0 .10218.65515 1.43609 1.43609 0 0 0 1.09106.97046c1.35205.222 2.60986-1.44739 3.09229-2.16016s1.28772-2.00305 2.97155-5.10992c1.41455-2.60974 2.87293-5.82264 2.80713-7.00684a2.50117 2.50117 0 0 0 -.33166-1.09314 1.21 1.21 0 0 0 -.34131-.34143.52137.52137 0 0 0 .1073.01434c.1355 0 .54883-.08758.54883-.71978s-.015-1.35529-.015-1.35529.02869-.00232.20386-.01056c.13416-.00629.16333-.0769.16309-.2699.00001-.05025-.00048-.10652-.00158-.16805z"/><path d="m4.084 25.35119a13.16609 13.16609 0 0 0 .668-1.64227c1.31372-2.66047 5.50769-5.98328 10.71875-5.98328l.02881-.00092.02881.00092c5.21118 0 9.405 3.32281 10.719 5.98328a13.13869 13.13869 0 0 0 .66773 1.64227 12.68507 12.68507 0 0 1 1.70459 5.53351l1.86145-.09778a14.33987 14.33987 0 0 0 -2.12634-6.65643 11.5417 11.5417 0 0 0 -.83057-1.01825 14.49392 14.49392 0 0 0 -11.99586-6.53724l-.02881.00068-.02881-.00068a14.49336 14.49336 0 0 0 -11.9956 6.53724 11.48721 11.48721 0 0 0 -.83081 1.01825 14.34188 14.34188 0 0 0 -2.12634 6.65765l1.86158.09772a12.68584 12.68584 0 0 1 1.70442-5.53467z"/><path d="m10.482 39.14263a48.14144 48.14144 0 0 0 -3.33618-5.713 2.06547 2.06547 0 0 0 -2.47229-.50348 2.95763 2.95763 0 0 0 -.3197.26849c-.57568.67841-.491 1.47437.04956 2.57343.658 1.33777 3.95679 8.419 5.59228 10.68719.81153 1.12531 1.4585 1.77222 2.46729 1.68451a1.38769 1.38769 0 0 0 .8457-.38244 2.34874 2.34874 0 0 0 .474-1.45435 5.018 5.018 0 0 0 -.74573-2.16016c-.10963-.2193-2.1382-4.1449-2.55493-5.00019z"/><path d="m9.434 47.00524c-1.6355-2.26813-4.93445-9.34936-5.59241-10.68713a2.85917 2.85917 0 0 1 -.39612-1.91974 3.76365 3.76365 0 0 0 -.72009-.30518 1.58915 1.58915 0 0 0 -.95557.06366.88193.88193 0 0 0 .1355-.52319c0-.68427.00269-1.27826.00269-1.27826s.1178.00281.25195.011.16992-.03064.18335-.19434c.0094-.11517.00781-.29895.01038-.542l-1.87854-.0987c-.00391.10517-.00757.21045-.00952.31775-.00171.08857-.00049.166.001.23053.003.14649.04444.202.16052.2074.17518.00824.204.01056.204.01056s-.01514.72296-.01514 1.35529.41333.71978.54883.71978c.00866 0 .02233-.00134.03466-.00232a1.21144 1.21144 0 0 0 -.323.32941 2.50263 2.50263 0 0 0 -.33157 1.09314c-.06592 1.1842 1.39258 4.3971 2.80713 7.00684 1.68384 3.10687 2.489 4.39715 2.97144 5.10992s1.74023 2.38214 3.09228 2.16016a1.43569 1.43569 0 0 0 1.09107-.97046 4.4563 4.4563 0 0 0 .10229-.65515 5.01771 5.01771 0 0 1 -1.37513-1.43897z"/><path d="m26.54168 35.76806c.54052-1.09906.62524-1.895.04956-2.57343a2.98121 2.98121 0 0 0 -.31971-.26849 2.06565 2.06565 0 0 0 -2.47241.50348 48.1757 48.1757 0 0 0 -3.33618 5.713c-.41675.85529-2.44531 4.78089-2.55493 5.00018a5.02 5.02 0 0 0 -.74561 2.1602 2.34736 2.34736 0 0 0 .47412 1.45435 1.38677 1.38677 0 0 0 .84559.38244c1.00891.08771 1.65576-.5592 2.46716-1.68451 1.6355-2.26821 4.93445-9.34945 5.59241-10.68722z"/></g></svg>