<svg xmlns="http://www.w3.org/2000/svg" viewBox="0 0 28 54">
  <defs>
    <style>
      .a {
        fill: #f5f5f7;
      }
    </style>
  </defs>
  <title>apple_music_large_</title>
  <path class="a" d="M22,22H6a6.018,6.018,0,0,0-6,6V44a6.018,6.018,0,0,0,6,6H22a6.018,6.018,0,0,0,6-6V28A6.018,6.018,0,0,0,22,22ZM19.958,40.952a2.166,2.166,0,0,1-.382.833,2.227,2.227,0,0,1-.717.614,3.005,3.005,0,0,1-.91.307,3.754,3.754,0,0,1-1.4.066,2.017,2.017,0,0,1-.945-.445,1.867,1.867,0,0,1-.661-1.2,1.827,1.827,0,0,1,.558-1.508,2.3,2.3,0,0,1,.85-.506,9.469,9.469,0,0,1,1.441-.338l.508-.095a.909.909,0,0,0,.568-.269.831.831,0,0,0,.158-.6V32.462c0-.409-.2-.521-.62-.445-.3.054-6.774,1.264-6.774,1.264-.365.082-.493.192-.493.612v7.836a3.831,3.831,0,0,1-.087.888,2.166,2.166,0,0,1-.382.833,2.228,2.228,0,0,1-.717.614,3.014,3.014,0,0,1-.91.311,3.752,3.752,0,0,1-1.4.066,2.022,2.022,0,0,1-.945-.449,1.846,1.846,0,0,1-.646-1.2,1.814,1.814,0,0,1,.543-1.508,2.3,2.3,0,0,1,.85-.506,9.472,9.472,0,0,1,1.441-.338l.508-.095a.909.909,0,0,0,.568-.269.836.836,0,0,0,.172-.594V30.454a1.469,1.469,0,0,1,.018-.243.717.717,0,0,1,.262-.468,1.129,1.129,0,0,1,.485-.2h0l7.787-1.455c.068-.013.63-.105.694-.11a.57.57,0,0,1,.657.638V40.06A3.854,3.854,0,0,1,19.958,40.952Z"/>
</svg>
