<svg xmlns="http://www.w3.org/2000/svg" viewBox="0 0 28 54">
  <defs>
    <style>
      .a {
        fill: #f5f5f7;
      }
    </style>
  </defs>
  <title>homepod_large_</title>
  <path class="a" d="M21.123,17.434c0,.378-3.189.684-7.123.684s-7.123-.306-7.123-.684S10.066,16.75,14,16.75,21.123,17.056,21.123,17.434Zm1.064.375c-.159.459-1.207,1.149-8.187,1.149s-8.028-.69-8.187-1.149A6.629,6.629,0,0,0,0,24.313V42.284a7.012,7.012,0,0,0,5.84,6.884c.244.456,1.515,1.082,8.16,1.082s7.916-.626,8.16-1.082A7.012,7.012,0,0,0,28,42.284V24.313A6.629,6.629,0,0,0,22.187,17.809Z"/>
</svg>
