<svg xmlns="http://www.w3.org/2000/svg" viewBox="0 0 17.002 54">
  <defs>
    <style>
      .a {
        fill: #f5f5f7;
      }
    </style>
  </defs>
  <title>ipod_large_</title>
  <path class="a" d="M14.062,15H3a2.819,2.819,0,0,0-3,2.929v29.13a2.82,2.82,0,0,0,3,2.929h11.06A2.682,2.682,0,0,0,17,47.315C17,46,17,17.929,17,17.929A2.627,2.627,0,0,0,14.339,15Q14.2,14.993,14.062,15ZM8.5,47.995a1,1,0,1,1,1-1A1,1,0,0,1,8.5,47.995ZM16,45H1V20H16Zm-7-27.5a.5.5,0,1,1-.5-.5A.5.5,0,0,1,9.006,17.5Z"/>
</svg>
