<svg xmlns="http://www.w3.org/2000/svg" viewBox="0 0 31 54"><title>Artboard 1_dark</title><path d="M15.5-.1H0v54H31V-.1Z" fill="none"/><path d="M29.5,44h-11a.4724.4724,0,0,0-.5.5V45H15.5a.4724.4724,0,0,0-.5.5v.8H6.8a4.25265,4.25265,0,0,1,0-8.5H24.2a5.752,5.752,0,0,0,0-11.5H18.5v-.8A.4724.4724,0,0,0,18,25H15.5v-.5A.4724.4724,0,0,0,15,24H7a.4724.4724,0,0,0-.5.5V25h-3a.4724.4724,0,0,0-.5.5v3a.4724.4724,0,0,0,.5.5h3v.5A.4724.4724,0,0,0,7,30h8a.4724.4724,0,0,0,.5-.5V29H18a.4724.4724,0,0,0,.5-.5v-.8h5.7a4.25265,4.25265,0,0,1,0,8.5H6.8a5.752,5.752,0,0,0,0,11.5H15v.8a.4724.4724,0,0,0,.5.5H18v.5a.4724.4724,0,0,0,.5.5h11a.4724.4724,0,0,0,.5-.5v-5A.4724.4724,0,0,0,29.5,44ZM4.68439,28.39948h-.9021v-.187h.9021Zm0-.37h-.9021v-.187h.9021Zm0-.37h-.9021v-.187h.9021Zm0-.369h-.9021v-.187h.9021Zm0-.37h-.9021v-.187h.9021Zm0-.37h-.9021v-.187h.9021Zm0-.37h-.9021v-.187h.9021Zm0-.37h-.9021v-.186h.9021Z" fill="#f5f5f7"/></svg>