<svg xmlns="http://www.w3.org/2000/svg" viewBox="0 0 48 54">
  <defs>
    <style>
      .a {
        fill: none;
      }

      .b {
        fill: #f5f5f7;
      }
    </style>
  </defs>
  <title>apple_tv_accessories_large_</title>
  <g>
    <rect class="a" width="48" height="54"/>
    <g>
      <path class="b" d="M12.31,26.9H36.08c6.12.18,10.87,4.63,10.87,10.54,0,6.19-5.29,11.63-11.29,11.63a7.19,7.19,0,0,1-5.32-1.73,8.47,8.47,0,0,0-5.88-2,10.44,10.44,0,0,0-6.28,2,9.63,9.63,0,0,1-6,1.81C6.18,49.15.94,43.7.94,37.51.99,31.45,6.08,26.9,12.31,26.9m0-1C5.53,25.9,0,30.9,0,37.45S5.49,50.06,12.27,50.06c6.62,0,6.26-3.7,12.24-3.75s4.6,3.75,11.22,3.75C42.51,50.06,48,44,48,37.44S42.75,26.09,36.16,25.9Z"/>
      <polygon class="b" points="15.99 38.89 13 38.89 13 41.89 11 41.89 11 38.89 8 38.89 8 36.92 11 36.92 11 33.9 13 33.9 13 36.92 15.99 36.92 15.99 38.89"/>
      <circle class="b" cx="33" cy="37.79" r="1.5"/>
      <circle class="b" cx="36.5" cy="41.29" r="1.5"/>
      <circle class="b" cx="36.5" cy="34.29" r="1.5"/>
      <circle class="b" cx="40" cy="37.79" r="1.5"/>
    </g>
  </g>
</svg>
