<svg xmlns="http://www.w3.org/2000/svg" viewBox="0 0 30 54">
  <defs>
    <style>
      .a {
        fill: none;
      }

      .b {
        fill: #f5f5f7;
      }
    </style>
  </defs>
  <title>apple_tv_airplay_large_</title>
  <g>
    <rect class="a" width="30" height="54"/>
    <path class="b" d="M22.607,49.162a.5.5,0,0,1-.371.824H7.311a.5.5,0,0,1-.371-.824l7.4-8.379a.578.578,0,0,1,.867,0ZM26.794,26a2.21,2.21,0,0,1,2.218,2.012L29,42.024A2.167,2.167,0,0,1,26.8,44l-6.09,0,.88.949,5.21.027a3.142,3.142,0,0,0,3.18-2.969v-14A3.181,3.181,0,0,0,26.794,25h0L2.8,25.012A2.831,2.831,0,0,0,0,28V42a2.829,2.829,0,0,0,2.785,3H7.56L8.565,44H2.784A1.835,1.835,0,0,1,1,42V28A1.84,1.84,0,0,1,2.789,26l24.005,0"/>
  </g>
</svg>
