<svg xmlns="http://www.w3.org/2000/svg" viewBox="0 0 32 54">
  <defs>
    <style>
      .a {
        fill: none;
      }

      .b {
        fill: #f5f5f7;
      }
    </style>
  </defs>
  <title>apple_tv_app_large_</title>
  <g>
    <rect class="a" width="32" height="54"/>
    <path class="b" d="M32,28.008c0-.382,0-.764,0-1.146,0-.322-.006-.644-.014-.965a14.034,14.034,0,0,0-.185-2.1,7.09,7.09,0,0,0-.658-2A6.72,6.72,0,0,0,28.2,18.86a7.094,7.094,0,0,0-2-.658,14.033,14.033,0,0,0-2.1-.185c-.322-.009-.644-.013-.966-.014-.382,0-.764,0-1.147,0H10.008c-.382,0-.764,0-1.146,0-.322,0-.644.006-.965.014a14.033,14.033,0,0,0-2.1.185,7.09,7.09,0,0,0-2,.658A6.72,6.72,0,0,0,.86,21.8a7.094,7.094,0,0,0-.658,2,14.032,14.032,0,0,0-.185,2.1c-.009.322-.013.644-.014.966,0,.382,0,.764,0,1.147v13.18c0,.3.006.606.014.91A14.032,14.032,0,0,0,.2,44.2a7.09,7.09,0,0,0,.658,2A6.72,6.72,0,0,0,3.8,49.137a7.1,7.1,0,0,0,2,.658,14.032,14.032,0,0,0,2.1.185c.322.009.644.013.966.014.382,0,.764,0,1.147,0l11.984,0c.382,0,.764,0,1.146,0,.322,0,.644-.006.965-.014a14.032,14.032,0,0,0,2.1-.185,7.09,7.09,0,0,0,2-.658A6.72,6.72,0,0,0,31.14,46.2a7.1,7.1,0,0,0,.658-2,14.033,14.033,0,0,0,.185-2.1c.009-.322.013-.644.014-.966,0-.382,0-.764,0-1.147Zm-22.141.374a2.571,2.571,0,0,1,1.7-.882,2.592,2.592,0,0,1-.6,1.848,2.146,2.146,0,0,1-1.719.81A2.428,2.428,0,0,1,9.859,28.382ZM13.171,37.6c-.482.709-.978,1.4-1.771,1.418-.765.014-1.02-.454-1.9-.454s-1.162.44-1.885.468c-.765.028-1.346-.752-1.827-1.46-.992-1.432-1.743-4.04-.723-5.8a2.8,2.8,0,0,1,2.38-1.446c.751-.014,1.445.5,1.9.5s1.261-.6,2.21-.539a2.715,2.715,0,0,1,2.111,1.148,2.624,2.624,0,0,0-1.247,2.2,2.574,2.574,0,0,0,1.544,2.339A6.3,6.3,0,0,1,13.171,37.6Zm5.979-5.462H17.6v4.529c0,.7.308,1.024.986,1.024a5.176,5.176,0,0,0,.555-.039v1.279a5.337,5.337,0,0,1-.917.069C16.624,39,16,38.386,16,36.83V32.139H14.814V30.868H16V28.942h1.6v1.926H19.15Zm5.419,6.8h-1.7l-2.86-8.07H21.7l2.006,6.485h.038l2.006-6.485h1.662Z"/>
  </g>
</svg>
