<svg xmlns="http://www.w3.org/2000/svg" viewBox="0 0 35 54">
  <defs>
    <style>
      .a {
        fill: #f5f5f7;
        fill-rule: evenodd;
      }

      .b {
        fill: none;
      }
    </style>
  </defs>
  <title>apple_tv_4K_large_</title>
  <path class="a" d="M34.988,36.742c-.012-.216-.032-.522-.062-.746-.051-.38-.179-.993-.179-.993l-1.781-7A3.511,3.511,0,0,0,29.5,25H5.526a3.548,3.548,0,0,0-3.5,3L.281,35s-.156.69-.187.964c-.02.177-.04.559-.052.806L0,36.729v9.292A3.991,3.991,0,0,0,4,50h27A4,4,0,0,0,35,46.021V36.729Zm-33.9-.664c.017-.152.109-.593.164-.835l1.749-7,.012-.049.007-.05A2.533,2.533,0,0,1,5.526,26H29.5a2.512,2.512,0,0,1,2.472,2.143l.008.052.013.051,1.771,6.961c.034.16.129.639.167.921S34,36.877,34,37a3,3,0,0,1-3,3H4.028a3,3,0,0,1-3-2.959C1.041,36.76,1.067,36.25,1.087,36.078ZM34,46.021A2.992,2.992,0,0,1,30.992,49H4a2.983,2.983,0,0,1-3-2.979V39.576A3.972,3.972,0,0,0,4.028,41H31a3.972,3.972,0,0,0,3-1.386ZM10.663,32.1a2.38,2.38,0,0,1,1.513-.467,3.634,3.634,0,0,1,.755.1,2.352,2.352,0,0,0,.417.063,2.367,2.367,0,0,0,.4-.06,4.13,4.13,0,0,1,.964-.107h0A2.343,2.343,0,0,1,16.057,32l.028.021-.04.016-.017.006c-.222.074-.738.287-.731.664.007.463.7.662.909.712a.107.107,0,0,1,.027.008l.023.012-.013.02a1.93,1.93,0,0,1-.493.517,1.783,1.783,0,0,1-1.135.457,2.365,2.365,0,0,1-.569-.07,2.52,2.52,0,0,0-.6-.075,2.682,2.682,0,0,0-.633.075,2.542,2.542,0,0,1-.527.071h-.028a1.871,1.871,0,0,1-1.146-.475C10.437,33.461,10.051,32.64,10.663,32.1Zm9.649.019-1.019,0v1.513c0,.226.18.323.6.324.1,0,.29-.007.352-.012l.061,0v.468l-.039.005a5.8,5.8,0,0,1-.6.023c-1.057,0-1.488-.221-1.488-.759v-1.56H17.4v-.47h.781V31l1.116,0v.648l1.019,0Zm3.5,2.306-1.14,0L20.7,31.651l1.185,0,1.36,2.151,1.36-2.147,1.164,0Zm-10.187-3.4a2.413,2.413,0,0,1,1.089-.286h.05l.005.026c.041.2-.1.422-.379.6h0a2.071,2.071,0,0,1-1.019.265l-.086,0-.043,0-.006-.022C13.177,31.386,13.409,31.158,13.624,31.031Z"/>
  <rect class="b" width="35" height="54"/>
</svg>
