<svg xmlns="http://www.w3.org/2000/svg" viewBox="0 0 37 54"><title>homepod.and.homepodmini.fill_elevated_dark</title><rect width="37" height="54" fill="none"/><path d="M22,17.84c3.9339,0,7.12292-.30615,7.12292-.68371S25.9339,16.47248,22,16.47248s-7.12292.30615-7.12292.68384S18.0661,17.84,22,17.84Z" fill="#f5f5f7"/><path d="M30.187,17.53125c-.15863.45905-1.20715,1.1493-8.187,1.1493s-8.02838-.69025-8.187-1.1493A6.62919,6.62919,0,0,0,8,24.03583V34.73151c.05145-.00018.10211-.00244.15369-.00244h.00317q.55866,0,1.11694.01758c.90345.02984,1.78754.11541,2.61567.20056a3.112,3.112,0,0,1,1.67279.60089,8.72716,8.72716,0,0,1,1.71807,11.81445,8.78172,8.78172,0,0,1-1.4021,1.58393c.3202.4497,1.745,1.026,8.12177,1.026,6.64453,0,7.91595-.62616,8.15973-1.08234A7.01252,7.01252,0,0,0,36,42.00641V24.03583A6.62914,6.62914,0,0,0,30.187,17.53125Z" fill="#f5f5f7"/><path d="M15.8313,42.885a7.77821,7.77821,0,0,0-.04329-1.52824,7.42635,7.42635,0,0,0-.3488-1.48384,7.9417,7.9417,0,0,0-.69566-1.49638,7.495,7.495,0,0,0-.98488-1.29635q-.18837-.19895-.393-.38626t-.42555-.36288a1.53969,1.53969,0,0,0-.40486-.2291,2.33263,2.33263,0,0,0-.44365-.11905c-.05047-.00882-.10119-.01644-.152-.02317s-.10167-.01256-.15245-.01778c-.42337-.04352-.84743-.08546-1.27191-.12s-.8494-.06178-1.27448-.07582q-.27077-.00892-.5418-.013t-.54212-.004H8.15051c-.02511,0-.0502.00055-.07528.00112s-.05014.00117-.07523.00126q-.2335.001-.46689.004-.23337.00333-.46652.01069c-.42511.014-.85.04124-1.2745.07582s-.84852.07652-1.27189.12c-.05078.00522-.10165.011-.15245.01778s-.10151.01435-.152.02317a2.332,2.332,0,0,0-.44367.11905,1.54022,1.54022,0,0,0-.4049.2291q-.22088.17554-.42549.36288t-.393.38626a7.49245,7.49245,0,0,0-.98488,1.29635,7.94423,7.94423,0,0,0-.69567,1.49638,7.42365,7.42365,0,0,0-.34882,1.48384,7.73606,7.73606,0,0,0,1.33,5.43675,8.10748,8.10748,0,0,0,.56434.72522,7.61754,7.61754,0,0,0,.637.64667,7.42371,7.42371,0,0,0,.71045.565,7.53341,7.53341,0,0,0,.78479.48039c.16943.09009.34094.182.51587.264a3.41875,3.41875,0,0,0,.53637.2048,7.39729,7.39729,0,0,0,.94849.19376c.31976.04475.64215.0715.96423.08572q.16105.00714.32185.01028t.321.00315q.16017,0,.321-.00315t.32185-.01028c.32205-.01422.64444-.041.96421-.08572a7.39724,7.39724,0,0,0,.94851-.19376,3.418,3.418,0,0,0,.53634-.2048c.17492-.082.34641-.17386.51584-.264.16913-.08991.33184-.18724.4898-.29s.3112-.211.46138-.32271c.0932-.06931.18621-.13878.27743-.21028s.18063-.145.26663-.2224a7.61961,7.61961,0,0,0,.637-.64667,8.0985,8.0985,0,0,0,.56436-.72522,7.82792,7.82792,0,0,0,.95473-1.85821A7.73161,7.73161,0,0,0,15.8313,42.885ZM4.07574,36.61518c0-.1673.43625-.31864,1.14491-.42972A19.67708,19.67708,0,0,1,8,35.99726c.02609-.00016.05135-.00075.07666-.00131s.05069-.00107.077-.00107a20.221,20.221,0,0,1,2.88354.18168c.738.11225,1.1944.26732,1.1944.43862s-.45644.32638-1.1944.43865a20.219,20.219,0,0,1-2.88354.18171c-.02634,0-.05172-.00052-.077-.00108S8.02609,37.23331,8,37.23316a19.675,19.675,0,0,1-2.77935-.18823C4.512,36.93383,4.07574,36.78247,4.07574,36.61518Z" fill="#f5f5f7"/><path d="M8.15369,36.9289c.41171,0,.80394-.00878,1.16069-.02465s.678-.03885.94784-.06723a5.00845,5.00845,0,0,0,.63906-.09972c.1509-.03754.23434-.0788.23434-.12212s-.08344-.08456-.23434-.12209a5.009,5.009,0,0,0-.63906-.0997c-.26981-.02838-.59109-.05135-.94784-.06722s-.749-.02465-1.16069-.02465l-.03893.00021-.03817.0005-.03805.00055L8,36.30317c-.39348.00215-.767.01224-1.10592.0288s-.64328.03957-.89845.06755a4.64513,4.64513,0,0,0-.60335.09738c-.14219.03644-.22059.07636-.22059.11828s.0784.08186.22059.11831a4.64484,4.64484,0,0,0,.60335.09739c.25517.028.55952.051.89845.06756S7.60652,36.9251,8,36.92725l.03854.00039.03805.00055.03817.00049Z" fill="#f5f5f7"/></svg>